<svg width="69" height="146" viewBox="0 0 69 146" fill="none" xmlns="http://www.w3.org/2000/svg">
<path d="M8.95898 122.834C14.6452 126.544 19.5509 130.849 24.871 135.025C25.0849 135.193 28.1663 138.127 28.4087 137.822C28.6302 137.543 28.6567 137.096 28.8854 136.798C29.404 136.122 30.3203 135.719 31.016 135.26C35.4279 132.348 39.4172 128.708 43.6599 125.554C47.0725 123.018 50.6967 120.419 53.8483 117.559C54.3875 117.07 55.9083 116.303 55.7725 115.496" stroke="#FF5900" stroke-width="16" stroke-linecap="round"/>
<path d="M44.6912 8.52213C43.5853 9.91394 42.8105 11.5651 41.9577 13.1404C37.4644 21.4405 32.5206 29.4721 27.5268 37.4812C24.4082 42.4827 20.8871 47.7048 19.0421 53.3306C18.7682 54.1659 18.7273 54.6157 18.8706 55.4683C19.0271 56.3997 19.5746 57.7722 20.2925 58.3999C21.2175 59.2088 22.128 58.7698 23.2718 58.5775C26.3919 58.053 29.5779 57.6805 32.6635 56.9839C35.9487 56.2422 39.1032 54.9032 42.3834 54.0963C45.0759 53.4341 47.8851 52.847 50.6201 52.3872C51.7484 52.1975 53.2743 51.6447 54.4021 52.0759C55.4416 52.4733 55.7424 55.3635 55.8902 56.191C56.5481 59.8742 56.6291 63.0012 55.1492 66.5208C51.4892 75.2256 46.9703 83.6076 43.1494 92.252C39.5415 100.415 35.6316 108.353 32.8959 116.879C31.2932 121.873 30.1633 126.925 28.8597 131.995C28.733 132.488 27.8758 136.306 27.3542 135.935" stroke="#FF5900" stroke-width="16" stroke-linecap="round"/>
</svg>
