<svg width="35" height="35" viewBox="0 0 35 35" fill="none" xmlns="http://www.w3.org/2000/svg">
<g filter="url(#filter0_i_105_416)">
<rect width="35" height="35" rx="17.5" fill="white" fill-opacity="0.01"/>
<path d="M24.2812 17.75C24.2812 21.1406 21.793 23.957 18.5391 24.4492V19.7188H20.125L20.4258 17.75H18.5391V16.4922C18.5391 15.9453 18.8125 15.4258 19.6602 15.4258H20.5078V13.7578C20.5078 13.7578 19.7422 13.6211 18.9766 13.6211C17.4453 13.6211 16.4336 14.5781 16.4336 16.2734V17.75H14.7109V19.7188H16.4336V24.4492C13.1797 23.957 10.7188 21.1406 10.7188 17.75C10.7188 14.0039 13.7539 10.9688 17.5 10.9688C21.2461 10.9688 24.2812 14.0039 24.2812 17.75Z" fill="#F2F2F2"/>
</g>
<defs>
<filter id="filter0_i_105_416" x="0" y="0" width="35" height="35" filterUnits="userSpaceOnUse" color-interpolation-filters="sRGB">
<feFlood flood-opacity="0" result="BackgroundImageFix"/>
<feBlend mode="normal" in="SourceGraphic" in2="BackgroundImageFix" result="shape"/>
<feColorMatrix in="SourceAlpha" type="matrix" values="0 0 0 0 0 0 0 0 0 0 0 0 0 0 0 0 0 0 127 0" result="hardAlpha"/>
<feMorphology radius="2" operator="erode" in="SourceAlpha" result="effect1_innerShadow_105_416"/>
<feOffset/>
<feComposite in2="hardAlpha" operator="arithmetic" k2="-1" k3="1"/>
<feColorMatrix type="matrix" values="0 0 0 0 0.886275 0 0 0 0 0.886275 0 0 0 0 0.886275 0 0 0 1 0"/>
<feBlend mode="normal" in2="shape" result="effect1_innerShadow_105_416"/>
</filter>
</defs>
</svg>
