<svg width="813" height="529" viewBox="0 0 813 529" fill="none" xmlns="http://www.w3.org/2000/svg">
<path d="M109.776 475.143C109.776 479.791 110.343 482.115 114.169 484.439C117.003 486.144 118.987 487.073 118.987 490.947C118.987 494.821 118.703 502.413 90.7871 502.413C84.552 502.413 66.4136 502.258 66.4136 491.877C65.8467 479.946 76.333 493.116 76.333 461.663C76.333 453.296 74.6326 453.605 67.5472 453.605C47.7083 453.605 49.5504 454.225 49.5504 468.17C49.5504 489.398 58.3363 480.876 58.3363 490.947C58.3363 501.793 37.6471 502.413 30.8452 502.413C24.0432 502.413 4.62939 501.793 4.62939 491.257C4.62939 488.003 6.755 485.989 9.16401 484.749C14.2655 482.115 16.1076 482.58 16.1076 450.197C16.1076 408.981 15.5408 412.39 10.2977 409.291C8.17206 408.052 5.62134 406.657 5.62134 403.558C5.62134 391.628 29.2864 390.388 37.222 390.388C43.1736 390.388 59.6116 391.163 59.6116 400.459C59.6116 405.263 57.2026 406.967 53.9434 409.136C50.4007 411.306 49.5504 413.165 49.5504 426.955C49.5504 435.632 53.2348 434.547 60.0368 434.547H67.2638C76.6164 434.547 76.333 432.998 76.333 428.194C76.333 411.305 73.924 410.221 72.0818 409.136C69.3894 407.432 66.8387 406.037 66.8387 402.009C66.8387 399.065 66.2719 390.388 94.4715 390.388C101.132 390.388 119.979 390.543 119.979 401.389C119.979 404.798 118.42 407.122 115.586 408.671C111.335 410.686 109.776 410.221 109.776 434.857V475.143Z" fill="#FF5900"/>
<path d="M105.568 451.962C110.364 424.731 134.915 413.954 157.872 418.789C182.224 423.91 192.469 447.686 189.146 466.55C184.753 491.504 157.588 501.568 137.133 497.26C116.536 492.93 101.338 476.002 105.568 451.962ZM130.118 403.48C124.549 402.31 117.351 398.111 118.669 390.658C120.567 379.859 135.227 381.044 142.319 382.539C147.888 383.709 156.915 387.343 155.491 395.408C153.698 405.603 137.076 404.944 130.118 403.48ZM148.732 435.484C144.14 434.516 140.803 438.707 140.307 443.177C139.173 452.876 137.558 476.839 147.052 479.465C152.288 480.883 154.258 476.25 155.116 471.377C156.32 464.528 158.198 437.467 148.732 435.476V435.484ZM172.56 412.413C166.991 411.243 159.792 407.044 161.11 399.591C163.009 388.791 177.668 389.977 184.761 391.472C190.33 392.642 199.356 396.275 197.932 404.34C196.14 414.535 179.517 413.877 172.56 412.413Z" fill="#FF5900"/>
<path d="M211.749 501.15C209.999 508.657 207.54 519.805 201.609 524.546C195.091 529.923 183.301 529.675 175.748 527.568C169.981 525.956 160.139 520.494 161.995 512.538C162.591 509.989 165.177 508.308 167.508 508.959C168.882 509.338 170.151 510.175 171.383 510.524C173.58 511.136 175.344 509.23 175.833 507.13C176.641 503.675 175.776 504.233 176.967 499.135L187.928 452.14C191.293 437.731 180.722 442.294 182.614 434.19C185.944 419.927 223.85 427.303 223.992 427.342C228.938 428.721 227.818 432.246 226.805 436.6L211.742 501.157L211.749 501.15ZM201.645 415.976C195.877 414.365 190.365 409.794 192.08 402.434C194.39 392.526 213.463 393.525 220.464 395.477C225.955 397.011 233.323 401.148 231.573 408.648C228.838 420.361 209.467 418.153 201.638 415.969L201.645 415.976Z" fill="#FF5900"/>
<path d="M252.61 422.461C255.161 422.926 257.428 423.546 258.42 423.546C259.837 423.546 260.971 423.081 262.246 422.461C263.521 421.996 264.797 421.531 266.072 421.531C272.591 421.531 279.109 435.786 279.109 442.139C279.109 446.323 275.85 449.422 272.165 449.422C264.088 449.422 259.554 437.181 253.318 437.181C250.768 437.181 248.217 439.505 248.217 442.449C248.217 452.365 279.392 454.225 279.392 478.241C279.392 492.806 266.497 502.877 251.76 502.877C248.926 502.877 244.816 502.413 241.273 501.793C237.731 501.328 234.613 500.863 233.763 500.863C232.771 500.863 231.921 501.018 230.929 501.173C230.079 501.328 229.228 501.483 228.236 501.483C225.402 501.483 223.985 501.018 222.001 498.539C218.459 494.201 214.916 485.369 214.916 479.481C214.916 475.452 216.191 472.198 220.301 472.198C226.536 472.198 232.204 487.538 240.14 487.538C242.974 487.538 245.666 485.988 245.666 482.58C245.666 473.438 217.892 472.353 217.892 446.787C217.892 431.293 229.512 421.531 244.107 421.531C246.942 421.531 249.917 421.841 252.61 422.461Z" fill="#FF5900"/>
<path d="M318.281 476.575C317.651 475.692 313.888 470.726 312.478 470.85C310.927 470.982 311.302 474.367 311.373 475.297C311.919 489.079 317.806 483.927 318.317 491.187C318.621 495.509 318.076 501.932 296.04 503.784C284.456 504.76 271.348 506.325 270.632 496.129C270.108 488.715 277.98 493.487 277.491 480.48C277.151 469.634 276.825 454.898 276.35 448.096L274.791 426.001C273.913 413.489 263.618 422.747 263.001 413.939C262.272 403.589 293.667 393.331 301.156 392.696C304.968 392.378 305.428 394.826 305.528 398.235L307.129 431.045C307.54 440.953 307.816 444.819 311.203 444.533C313.463 444.339 322.136 438.327 321.973 436.011C321.824 433.849 318.905 432.85 318.692 429.759C318.125 421.725 332.501 420.051 337.447 419.633C343.243 419.145 358.653 418.006 359.327 427.582C359.815 434.531 354.36 431.726 346.282 438.157C344.922 439.048 339.629 442.604 339.764 444.455C340.033 448.321 358.136 469.169 361.07 472.5C368.034 480.619 375.793 479.806 376.253 486.298C376.593 491.086 373.632 495.533 362.756 496.447L342.832 498.128C337.178 498.601 336.455 498.353 332.721 493.852L318.288 476.575H318.281Z" fill="#FF5900"/>
<path d="M350.243 458.717C350.243 430.982 372.491 415.333 395.873 415.333C420.672 415.333 434.842 436.56 434.842 455.773C434.842 481.184 409.902 496.679 389.071 496.679C368.24 496.679 350.243 483.199 350.243 458.717ZM389.78 433.616C385.103 433.616 382.552 438.42 382.836 442.913C383.403 452.674 385.953 476.536 395.731 477.156C401.116 477.466 402.25 472.507 402.25 467.549C402.25 460.577 399.416 433.616 389.78 433.616Z" fill="#FF5900"/>
<path d="M459.109 472.515C458.953 475.297 458.528 480.394 459.102 482.912C460.349 488.583 466.861 486.375 466.499 492.875C465.925 503.241 448.708 501.32 442.629 500.917C436.549 500.514 416.42 499.956 417.029 488.971C417.327 483.555 423.3 485.972 425.312 480.363C427.502 474.142 428.578 454.813 428.997 447.236C429.33 441.201 430.258 429.627 429.372 422.577C427.884 410.995 419.318 414.458 419.807 405.641C420.551 392.184 457.508 391.379 459.492 391.51C464.303 391.828 465.245 395.306 464.983 399.947C464.785 403.503 462 420.392 460.774 442.51L459.109 472.515Z" fill="#FF5900"/>
<path d="M489.257 454.24C487.698 454.24 485.431 453.775 485.431 456.409C485.431 464.156 494.642 470.664 501.302 470.664C511.93 470.664 517.173 463.691 520.149 463.691C523.125 463.691 525.676 468.495 525.676 471.439C525.676 483.369 505.695 492.046 492.941 492.046C467.434 492.046 454.255 471.903 454.255 451.915C454.255 428.054 472.819 410.7 494.075 410.7C518.165 410.7 528.793 430.998 528.793 442.619C528.793 452.845 524.542 454.24 520.007 454.24H489.257ZM501.586 434.717C501.586 429.139 498.468 424.8 493.225 424.8C488.549 424.8 484.722 430.068 484.722 435.027C484.722 440.605 489.54 439.365 493.225 439.365C496.909 439.365 501.586 440.295 501.586 434.717Z" fill="#FF5900"/>
<path d="M554.095 470.183C554.095 485.213 558.913 482.579 558.913 488.467C558.913 498.073 540.066 497.763 534.256 497.763C528.446 497.763 514.134 497.763 514.134 488.467C514.134 481.029 520.652 487.692 521.078 472.507L521.644 449.266C521.928 437.8 513.284 441.519 513.284 433.306C513.284 425.094 545.876 417.347 548.71 417.347C551.828 417.347 553.812 420.291 553.812 423.39C553.812 424.32 553.67 425.249 553.67 426.179C553.67 428.038 554.379 430.208 556.504 430.208C558.772 430.208 560.047 426.954 562.881 423.7C565.715 420.601 569.966 417.347 578.044 417.347C607.377 417.347 602.417 448.801 603.834 472.353C604.543 484.593 610.353 481.804 610.353 488.467C610.353 491.256 610.92 497.763 584.279 497.763C579.177 497.763 565.573 498.073 565.573 489.396C565.573 483.818 570.25 486.453 570.958 476.381C571.667 465.38 575.635 440.589 562.314 440.589C553.245 440.589 554.095 451.28 554.095 458.253V470.183Z" fill="#FF5900"/>
<path d="M604.04 419.052C604.324 403.093 593.696 410.84 593.696 400.769C593.696 393.641 601.915 392.557 606.874 392.557H653.071C692.465 392.557 705.361 419.207 705.361 447.097C705.361 474.987 689.915 503.032 654.063 503.032C647.969 503.032 642.868 502.877 638.475 502.567C634.082 502.412 630.256 502.257 626.288 502.257C622.32 502.257 618.211 502.412 614.243 502.567C610.275 502.877 606.308 503.032 602.198 503.032C597.38 503.032 591.287 500.398 591.287 494.2C591.287 483.044 602.482 495.44 602.907 472.818L604.04 419.052ZM638.043 475.762C638.043 483.664 639.177 486.918 646.829 486.918C664.684 486.918 667.801 466.93 667.801 451.436C667.801 415.179 655.331 409.446 644.42 409.446C638.468 409.446 638.043 412.08 638.043 417.968V475.762Z" fill="#FF5900"/>
<path d="M754.816 475.808C752.308 472.803 743.6 461.817 740.341 461.941C736.657 462.08 736.217 466.124 736.366 470.618L736.472 473.872C736.706 481.301 745.648 481.588 745.889 489.172C746.045 494.131 742.934 498.895 718.008 499.84C695.632 500.685 692.664 496.618 692.501 491.349C692.246 483.3 699.459 487.212 700.748 474.29C701.747 465.567 701.577 455.658 701.294 446.826C700.989 437.227 700.776 426.071 698.92 416.682C696.66 403.434 689.334 409.446 689.036 400.002C688.958 397.523 687.406 388.9 718.426 387.722C725.079 387.467 739.802 386.754 740.143 397.445C740.405 405.649 732.455 400.993 733.036 419.261C733.1 421.276 733.383 425.761 735.934 425.661C739.76 425.513 750.438 409.143 750.324 405.58C750.218 402.326 747.908 400.862 747.795 397.461C747.433 386.002 766.146 385.91 772.941 385.654C779.735 385.398 796.145 383.996 796.492 394.997C796.896 407.695 781.925 400.668 777.142 406.269C774.407 409.477 762.667 419.378 762.879 425.878C763.014 430.061 766.528 433.648 768.888 436.499L799.659 472.384C804.074 477.49 812.697 476.544 812.994 485.988C813.242 493.728 806.043 494.781 800.517 494.991L776.441 495.905C770.914 496.114 770.758 495.657 764.856 488.282L754.816 475.793V475.808Z" fill="#FF5900"/>
<path d="M523.199 5.81454C525.523 7.37173 531 14.5534 531.729 17.1875C534.188 26.0426 529.781 38.9959 526.217 47.6186C522.433 56.7603 515.306 64.3836 513.095 73.5409C512.939 74.1761 513.584 74.7262 514.292 74.5635C517.155 73.8972 520.584 74.1839 522.866 73.4866C547.005 66.1655 571.507 56.4117 597.177 49.1758C647.029 35.1301 734.81 13.1744 783.542 36.9972C794.376 42.2885 798.23 52.3212 796.997 62.9736C796.055 71.1237 791.464 73.6338 786.462 79.6069C763.03 107.574 723.792 127.942 690.547 145.149C687.564 146.69 674.52 152.849 673.649 155.638C673.578 155.863 673.649 156.095 673.805 156.289C674.945 157.738 676.681 159.295 678.346 160.147C687.458 164.803 701.948 168.731 711.846 173.217C728.922 180.949 769.103 201.239 780.737 213.192C782.912 215.424 789.395 223.365 790.493 225.89C794.029 233.971 788.013 240.842 779.419 243.701C756.477 251.332 721.036 246.87 697.555 243.779C643.834 236.713 589.794 225.557 539.119 211.976C535.499 211.008 531.609 210.442 527.981 209.21C527.535 209.055 527.032 209.21 526.784 209.575L525.572 211.364C525.452 211.542 525.402 211.752 525.438 211.945C526.543 218.685 533.232 223.512 536.009 228.307C542.145 238.906 558.335 271.63 557.47 282.344C556.96 288.666 550.003 297.614 543.477 300.419C539.127 302.293 525.65 302.433 520.577 302.193C500.667 301.248 479.581 288.232 461.833 282.344C461.315 282.174 461.067 281.655 461.287 281.198L461.45 280.865C461.67 280.415 461.422 279.904 460.911 279.726C454.23 277.332 448.64 273.265 442.738 269.67C441.087 268.663 438.529 268.725 436.729 267.524C433.172 265.161 430.062 259.459 423.862 258.126C423.267 258.002 422.948 257.437 423.196 256.941C423.451 256.438 423.125 255.864 422.523 255.748C414.51 254.276 408.671 246.343 402.656 241.803C391.617 233.467 381.697 226.719 371.629 217.709C367.775 214.262 364.806 211.659 358.925 211.449C358.727 211.449 358.521 211.488 358.351 211.589L165.928 318.276C165.049 318.764 165.495 319.965 166.523 319.872C169.272 319.632 172.028 319.632 174.65 318.981C188.041 315.657 204.89 307.337 218.465 302.89C254.211 291.161 289.439 280.632 325.333 269.081C332.794 266.679 342.834 261.799 351.386 260.125C360.335 258.382 367.605 259.73 367.761 268.67C367.867 274.76 363.049 276.728 358.528 280.237C342.225 292.873 324.561 307.608 308.038 321.491C301.456 327.023 292.72 331.524 288.419 338.628C288.001 339.317 288.702 340.1 289.545 339.875C295.32 338.341 302.207 337.412 307.478 335.754C343.174 324.528 378.063 310.32 413.844 298.056C424.068 294.554 434.171 290.184 444.672 294.345C444.934 294.445 445.14 294.655 445.217 294.895C449.299 306.926 438.458 318.609 433.541 329.595C431.337 334.506 427.341 342.904 425.945 347.615C425.648 348.614 424.996 352.162 426.356 352.201C440.123 349.242 453.699 344.454 466.941 339.767C522.554 320.089 575.17 300.79 630.124 282.189C638.839 279.238 654.518 270.855 663.701 270.77C685.595 270.561 667.931 291.78 662.298 299.334C655.85 307.972 648.404 316.889 641.389 324.939C640.263 326.225 636.196 330.377 635.997 330.726C635.423 331.772 634.63 332.461 634.056 333.445C633.071 335.149 634.757 337.094 636.862 336.66C639.618 336.079 642.615 335.258 644.904 334.344C646.441 333.732 647.532 332.81 648.949 332.128C680.316 316.951 713.915 300.364 745.593 285.25C752.87 281.779 754.308 278.819 764.136 280.167C769.641 280.919 771.398 284.142 771.341 288.968C771.292 293.578 763.718 300.488 760.813 304.494C750.95 318.098 740.513 335.568 730.346 347.925C729.403 349.071 730.601 347.63 729.914 348.506C729.333 349.242 725.372 353.673 725.06 355.672C724.982 356.175 725.421 356.625 725.988 356.633C728.737 356.664 731.267 357.624 734.094 357.469C744.212 356.904 758.389 353.015 768.925 351.767C771.512 351.457 780 350.613 781.615 351.062C784.216 351.783 787.425 366.789 784.308 369.687C784.166 369.818 783.953 369.888 783.748 369.904C768.493 371.228 753.444 373.769 738.31 375.815C727.249 377.31 714.723 379.944 704.208 380.99C702.685 381.137 692.758 381.981 692.191 381.989C690.448 382.036 687.189 381.765 686.048 380.595C682.938 377.395 685.262 376.496 687.621 370.237C692.9 356.253 708.48 343.021 716.551 330.857C717.599 329.277 719.548 325.14 719.987 322.452C720.086 321.832 719.448 321.321 718.768 321.499C716.869 321.995 714.723 321.925 713.072 322.413C704.938 324.799 679.856 338.667 670.808 343.137C648.567 354.122 626.793 367.138 603.816 376.876C596.114 380.145 585.691 383.756 582.113 374.118C578.464 364.295 583.934 363.388 591.225 356.609L592.082 355.811L592.926 354.239C593.783 353.441 593.202 354.13 593.443 353.712C602.909 337.048 618.915 324.001 628.331 306.237C628.565 305.803 628.338 305.276 627.856 305.067C620.728 302.053 619.007 306.593 614.437 308.251C569.87 324.466 523.709 339.643 479.971 354.936C457.801 362.683 428.163 375.985 405.965 380.719C396.732 382.686 392.382 377.899 391.943 370.082C391.936 369.942 391.964 369.811 392.021 369.679L412.186 327.921C412.242 327.813 412.264 327.689 412.264 327.573L412.228 322.367C412.228 321.762 411.548 321.359 410.917 321.569L227.209 382.748C226.961 382.834 226.677 382.826 226.436 382.717C219.457 379.75 214.25 375.342 219.068 368.222C221.03 365.325 232.934 355.184 236.526 352.162C254.912 336.707 277.713 322.498 294.696 305.694C295.993 304.408 297.949 302.038 298.941 300.124C299.224 299.582 298.82 298.947 298.147 298.9C292.337 298.459 288.667 301.511 284.196 302.944C238.219 317.734 192.271 332.283 146.804 347.305C137.303 350.443 128.843 353.324 119.419 356.23C95.2867 363.652 67.8664 375.83 43.7266 381.586C38.9582 382.725 36.0249 382.33 33.1766 378.596C31.1431 375.931 29.9244 375.009 30.3779 371.345C31.3273 363.613 39.9927 361.8 45.6822 358.74C123.777 316.672 203.31 273.667 282.843 229.756C288.412 226.68 296.496 223.961 301.952 220.397C303.114 219.638 308.045 216.563 309.214 214.564C309.554 213.983 309.058 213.285 308.322 213.301C294.98 213.65 282.361 218.786 269.416 221.583C213.123 233.761 158.956 245.405 101.954 253.215C77.6158 256.554 54.8294 260.807 29.8252 260.319C16.2639 260.048 -2.25013 256.91 6.00429 241.16C6.86162 239.525 22.6194 221.381 23.7885 220.599C52.7888 201.401 90.3765 180.12 124.081 164.532C133.321 160.256 146.953 156.731 155.64 152.199C156.66 151.664 157.198 149.41 159.005 148.867C159.721 148.658 159.855 147.798 159.289 147.372C156.058 144.924 145.125 141.035 143.517 140.469C106.552 127.438 48.3888 108.659 20.2175 88.4543C17.851 86.7576 1.64681 72.1696 1.18626 71.023C1.00204 70.5737 -0.11744 62.2376 0.010096 61.7883C0.165973 61.215 6.52861 53.646 7.00332 53.3283C18.7437 45.4726 66.1943 44.45 81.6332 44.6049C143.658 45.2325 208.029 55.0714 269.062 63.4075C279.08 64.7787 300.131 69.5898 309.363 69.3341C312.984 69.2334 314.741 67.0952 316.555 66.1423C321.302 63.6321 326.368 60.4403 331.519 57.2562C375.54 29.9937 433.945 -0.406489 492.3 0.00411407C498.577 0.0505975 518.544 2.67691 523.234 5.82229L523.199 5.81454ZM387.401 108.799C367.087 109.689 328.246 113.307 309.399 118.289C301.824 120.288 281.858 126.749 291.14 135.751C292.982 137.533 296.397 138.656 298.926 139.648C323.371 149.169 396.159 148.449 424.464 146.512C440.3 145.427 486.532 140.508 497.975 132.149C511.387 122.348 489.614 115.825 480.885 114.012C458.226 109.31 411.172 107.753 387.408 108.791L387.401 108.799Z" fill="#FF5900"/>
</svg>
