<svg width="388" height="144" viewBox="0 0 388 144" fill="none" xmlns="http://www.w3.org/2000/svg">
<path d="M150.536 95.2758C144.058 95.4305 137.93 97.7092 131.644 98.95C104.31 104.353 78.0074 109.519 50.3289 112.984C38.5108 114.465 27.4463 116.352 15.3049 116.135C8.71984 116.015 -0.270097 114.623 3.73805 107.635C4.15434 106.91 11.8059 98.8607 12.3736 98.5135C26.4555 89.9965 44.7071 80.5548 61.0734 73.6394C65.5598 71.7422 72.1793 70.1783 76.3973 68.1676C76.8927 67.9305 77.1542 66.9303 78.0315 66.6897C78.379 66.5969 78.4444 66.2154 78.1691 66.0263C76.6003 64.9402 71.2916 63.2148 70.5106 62.9639C52.5617 57.1827 24.3189 48.8513 10.6396 39.8874C9.49051 39.1347 1.62216 32.6627 1.39853 32.154C1.30908 31.9546 0.765484 28.2563 0.827412 28.057C0.903102 27.8027 3.99264 24.4446 4.22315 24.3037C9.92401 20.8185 32.9648 20.3648 40.4616 20.4336C70.5794 20.712 101.836 25.0771 131.472 28.7753C136.337 29.3837 146.559 31.5181 151.042 31.4047C152.8 31.36 153.653 30.4114 154.534 29.9886C156.839 28.875 159.299 27.4589 161.8 26.0463C183.176 13.9513 211.535 0.464192 239.871 0.646356C242.919 0.666979 252.615 1.83214 254.892 3.2276C256.021 3.91845 258.68 7.10461 259.035 8.27322C260.228 12.2018 258.088 17.9486 256.358 21.774C254.521 25.8298 251.06 29.2119 249.986 33.2745C249.91 33.5563 250.223 33.8003 250.568 33.7282C251.957 33.4326 253.623 33.5597 254.73 33.2504C266.452 30.0024 278.349 25.6751 290.814 22.4649C315.021 16.2335 357.645 6.49281 381.309 17.0618C386.569 19.4093 388.441 23.8603 387.842 28.5863C387.385 32.2021 385.155 33.3157 382.726 35.9657C371.349 48.3735 352.295 57.4096 336.153 65.0433C334.704 65.7273 328.37 68.4598 327.947 69.6971C327.913 69.7968 327.947 69.8999 328.023 69.9858C328.577 70.6286 329.42 71.3194 330.228 71.6975C334.653 73.7632 341.688 75.5058 346.495 77.4958C354.786 80.926 374.297 89.9277 379.946 95.2311C381.002 96.221 384.151 99.744 384.684 100.864C386.401 104.449 383.48 107.498 379.306 108.766C368.166 112.152 350.957 110.172 339.555 108.801C313.47 105.666 287.229 100.717 262.623 94.6915C260.865 94.2619 258.976 94.011 257.215 93.4645C256.998 93.3957 256.753 93.4645 256.633 93.626L256.045 94.42C255.986 94.499 255.962 94.5918 255.979 94.6777C256.516 97.668 259.764 99.8093 261.113 101.937C264.092 106.639 271.953 121.157 271.534 125.91C271.286 128.715 267.907 132.685 264.739 133.929C262.626 134.761 256.083 134.823 253.619 134.716C243.951 134.297 233.713 128.523 225.094 125.91C224.843 125.835 224.723 125.605 224.829 125.402L224.909 125.254C225.015 125.055 224.895 124.828 224.647 124.749C221.403 123.687 218.688 121.882 215.822 120.287C215.021 119.841 213.779 119.868 212.905 119.335C211.178 118.287 209.667 115.757 206.657 115.166C206.368 115.111 206.213 114.86 206.333 114.64C206.457 114.417 206.299 114.163 206.007 114.111C202.115 113.458 199.28 109.938 196.36 107.924C190.999 104.226 186.183 101.232 181.294 97.2349C179.422 95.7054 177.981 94.5506 175.125 94.4578M201.001 143.659C201.001 143.391 200.67 143.213 200.364 143.305ZM188.952 48.9166C179.088 49.3118 160.228 50.917 151.076 53.127C147.398 54.0138 137.703 56.8803 142.21 60.8742C143.105 61.6647 144.763 62.1631 145.991 62.603C157.861 66.8272 193.205 66.5075 206.949 65.6482C214.639 65.1671 237.088 62.9845 242.644 59.2759C249.157 54.928 238.584 52.034 234.346 51.2297C223.343 49.1434 200.495 48.4526 188.956 48.9131L188.952 48.9166Z" fill="#FF5900"/>
</svg>
