<svg width="468" height="428" viewBox="0 0 468 428" fill="none" xmlns="http://www.w3.org/2000/svg">
<path d="M155.704 109.4C157.82 109.404 163.942 111.45 165.301 112.696C169.872 116.881 171.008 126.099 171.327 132.48C171.662 139.246 169.186 146.426 170.617 152.593C170.714 153.022 171.339 153.091 171.778 152.723C173.547 151.229 176.018 150.068 177.375 148.781C191.745 135.194 205.579 120.056 221.039 105.926C251.064 78.4898 304.832 31.7896 346.337 26.7512C355.562 25.6286 361.482 29.9565 364.074 36.6123C366.058 41.7043 363.687 44.9368 362.151 50.3369C354.954 75.6254 334.335 102.622 316.85 125.466C315.28 127.514 308.228 136.134 308.526 138.089C308.549 138.247 308.674 138.354 308.845 138.406C310.105 138.805 311.812 139.037 313.243 138.887C321.068 138.062 332.388 134.733 340.703 133.505C355.047 131.383 389.478 127.604 401.415 130.037C403.645 130.489 410.711 132.587 412.29 133.627C417.357 136.945 415.41 143.259 410.375 148.243C396.935 161.546 370.913 172.671 353.63 179.964C314.089 196.652 273.004 211.091 233.467 222.821C230.643 223.66 227.762 224.837 224.848 225.526C224.488 225.609 224.19 225.894 224.136 226.201L223.875 227.708C223.849 227.858 223.882 227.998 223.969 228.097C226.917 231.579 233.117 231.79 236.596 233.497C244.281 237.27 266.099 249.987 268.967 256.536C270.659 260.401 268.73 268.283 265.113 272.435C262.702 275.205 253.402 280.501 249.806 282.324C235.694 289.48 216.859 290.089 202.645 293.542C202.231 293.643 201.891 293.438 201.896 293.088L201.901 292.832C201.908 292.486 201.57 292.285 201.159 292.379C195.751 293.576 190.558 293.38 185.301 293.579C183.831 293.633 182.077 294.659 180.44 294.659C177.209 294.664 173.206 292.561 168.476 294.187C168.023 294.345 167.619 294.14 167.63 293.757C167.644 293.366 167.233 293.16 166.778 293.325C160.744 295.572 154.128 293.23 148.487 292.924C138.134 292.36 129.071 292.284 119.173 290.954C115.384 290.446 112.483 290.084 108.337 292.238C108.2 292.315 108.07 292.417 107.984 292.541L9.07297 428.879C8.62166 429.502 9.31986 430.026 10.0022 429.574C11.8309 428.371 13.7423 427.305 15.3496 425.913C23.5604 418.804 32.5518 407.458 40.5268 399.626C61.5191 378.991 82.5414 359.253 103.695 338.665C108.091 334.385 113.474 327.669 118.863 323.389C124.505 318.916 129.982 316.885 132.984 322.01C135.028 325.501 132.324 328.507 130.325 332.291C123.108 345.929 115.628 361.311 108.663 375.757C105.889 381.512 101.287 387.503 100.604 393.288C100.537 393.85 101.277 394.032 101.789 393.576C105.297 390.451 109.772 387.247 112.891 384.246C134.012 363.923 153.607 342.182 174.451 321.224C180.408 315.236 186 308.792 194.629 307.143C194.843 307.1 195.053 307.141 195.185 307.251C201.909 312.65 198.172 323.621 198.318 331.896C198.379 335.597 198.326 342.015 198.883 345.287C199 345.982 199.696 348.292 200.652 347.788C209.241 340.745 217.106 332.715 224.772 324.872C256.969 291.94 287.211 260.387 319.3 228.335C324.388 223.25 332.548 212.321 338.889 208.719C354.004 200.126 348.622 219.269 347.16 225.83C345.485 233.335 343.207 241.389 340.947 248.772C340.582 249.953 339.106 253.936 339.081 254.215C339.022 255.043 338.695 255.75 338.615 256.543C338.484 257.913 340.282 258.388 341.601 257.322C343.325 255.919 345.137 254.283 346.428 252.867C347.297 251.917 347.755 250.96 348.517 250.016C365.357 229.077 383.288 206.455 400.365 185.43C404.288 180.602 404.327 178.329 411.579 175.308C415.639 173.614 417.901 174.803 419.424 177.625C420.881 180.317 417.865 187.257 417.147 190.704C414.71 202.411 413.127 216.583 410.075 227.684C409.793 228.714 410.157 227.415 409.964 228.188C409.799 228.84 408.486 232.943 408.917 234.223C409.026 234.545 409.476 234.636 409.872 234.421C411.788 233.375 413.853 232.954 415.764 231.77C422.597 227.527 431.17 219.785 438.073 214.985C439.766 213.805 445.379 210.031 446.645 209.666C448.681 209.078 455.764 216.54 454.539 219.427C454.484 219.558 454.359 219.681 454.221 219.77C444.071 226.441 434.458 233.738 424.624 240.78C417.438 245.927 409.604 252.302 402.651 256.977C401.642 257.652 395.032 261.982 394.641 262.206C393.447 262.907 391.099 264.011 389.93 263.774C386.737 263.122 388.058 261.701 387.668 257.158C386.803 247.004 393.325 233.3 394.985 223.122C395.201 221.8 395.213 218.646 394.648 216.917C394.516 216.519 393.908 216.469 393.494 216.836C392.338 217.858 390.826 218.648 389.84 219.57C384.971 224.102 372.066 241.851 367.238 247.944C355.37 262.922 344.483 278.896 331.7 293.436C327.418 298.312 321.358 304.439 315.758 300.233C310.048 295.947 313.548 293.305 316.41 286.552L316.746 285.757L316.822 284.519C317.158 283.724 316.979 284.349 317.01 284.013C318.181 270.685 325.059 256.924 325.839 242.977C325.861 242.634 325.533 242.417 325.131 242.482C319.213 243.492 319.488 246.791 316.856 249.521C291.198 276.171 264.099 302.835 238.717 328.629C225.85 341.701 209.602 360.885 195.74 372.22C189.975 376.933 185.409 375.84 182.574 371.475C182.524 371.397 182.501 371.31 182.498 371.212L182.967 339.188C182.971 339.103 182.946 339.023 182.908 338.956L181.199 335.95C181.003 335.599 180.401 335.629 180.032 335.994L72.4355 442.564C72.2911 442.709 72.0921 442.814 71.8899 442.845C66.0899 443.824 61.0518 443.282 62.0887 437.288C62.512 434.848 67.4845 424.36 68.9978 421.218C76.7461 405.138 87.9593 388.075 94.2984 371.756C94.7814 370.509 95.3703 368.377 95.4388 366.883C95.4599 366.459 94.9742 366.247 94.4924 366.48C90.3204 368.472 88.7631 371.663 86.1266 374.224C59.0296 400.592 31.8745 426.811 5.20649 453.116C-0.366994 458.613 -5.30096 463.558 -10.8956 468.889C-25.2289 482.532 -40.3025 500.206 -55.1797 512.885C-58.1179 515.391 -60.2799 516.296 -63.4637 515.233C-65.7364 514.474 -66.8799 514.41 -67.7514 512.109C-69.5953 507.257 -64.1728 502.853 -61.2177 498.876C-20.6762 444.258 20.5592 388.54 61.5014 332.296C64.368 328.357 69.0941 323.652 71.7241 319.474C72.2842 318.584 74.7086 314.891 74.8724 313.28C74.9202 312.811 74.3506 312.599 73.8446 312.893C64.7054 318.257 57.6169 326.119 49.5451 332.75C14.4492 361.596 -19.3458 389.309 -56.3472 415.895C-72.1443 427.249 -86.5695 438.533 -104.067 447.924C-113.559 453.014 -127.414 458.358 -126.787 446.029C-126.721 444.749 -121.666 428.127 -121.108 427.221C-107.211 404.865 -88.0325 377.976 -69.7039 355.894C-64.6807 349.838 -56.3681 342.519 -51.8109 336.529C-51.2764 335.824 -51.6326 334.308 -50.5552 333.294C-50.1266 332.896 -50.3116 332.345 -50.8426 332.317C-53.8754 332.147 -62.7156 334.122 -64.014 334.416C-93.8649 341.16 -140.277 352.773 -166.352 351.954C-168.543 351.886 -184.501 349.694 -185.191 349.207C-185.465 349.018 -188.939 344.616 -188.996 344.306C-189.073 343.913 -187.111 337.061 -186.884 336.693C-181.285 327.593 -148.71 308.64 -137.954 302.756C-94.7383 279.121 -46.9151 259.92 -1.89264 241.14C5.49879 238.059 21.6538 232.704 27.9733 228.984C30.4515 227.524 30.978 225.604 31.9274 224.35C34.4071 221.057 36.8872 217.245 39.4288 213.405C61.1329 180.559 91.7958 140.327 132.396 117.985C136.764 115.583 151.46 109.381 155.731 109.391L155.704 109.4ZM94.8625 221.679C81.0639 230.056 55.2992 247.184 43.8416 257.365C39.236 261.456 27.481 272.929 36.8311 274.559C38.6853 274.88 41.4172 274.21 43.4922 273.807C63.5252 269.871 113.768 241.289 132.771 229.213C143.401 222.457 173.869 201.714 179.099 192.438C185.229 181.564 168.018 186.205 161.378 188.531C144.143 194.571 111.009 211.874 94.8649 221.672L94.8625 221.679Z" fill="#FF5900"/>
</svg>
