<svg width="39" height="36" viewBox="0 0 39 36" fill="none" xmlns="http://www.w3.org/2000/svg">
<path d="M38.9611 1.20443C38.8907 0.971087 38.7386 0.825085 38.5694 0.832417L0.405624 2.58213C0.241741 2.58972 0.0957518 2.74395 0.0324562 2.97679C-0.0309229 3.20962 9.77515e-05 3.47782 0.111722 3.6628L6.95032 14.993V25.4C6.95032 25.6788 7.06704 25.9259 7.23954 26.0118C7.28201 26.0331 7.32532 26.0432 7.3683 26.0432C7.42006 26.0432 7.47106 26.0279 7.5188 25.9995L11.9906 23.3438L19.0036 34.9624C19.0827 35.0934 19.1938 35.1679 19.31 35.1679C19.3113 35.1679 19.3123 35.1679 19.3136 35.1679C19.4311 35.1664 19.5427 35.0888 19.6212 34.9543L38.8931 1.90473C39.0049 1.71319 39.0315 1.43778 38.9611 1.20443ZM19.6632 12.7292V10.3219L31.7411 5.10031L19.6632 12.7292ZM19.2344 9.17114L3.70126 3.71799L35.187 2.27443L19.2344 9.17114ZM17.5502 9.89935L7.6107 14.1965L1.64729 4.31628L17.5502 9.89935ZM7.78645 15.4566L18.8271 10.6834V13.2573L10.0284 18.8149C9.95648 18.8604 9.89419 18.9358 9.84862 19.0327L7.78654 23.4147L7.78645 15.4566ZM20.6013 13.5273L19.0068 33.0772L10.9038 19.6527L20.6013 13.5273ZM21.4897 12.966L37.0515 3.13655L19.8912 32.565L21.4897 12.966ZM8.53513 24.0176L10.2271 20.4221L11.3781 22.3288L8.53513 24.0176Z" fill="#FF5A00"/>
</svg>
