<svg width="49" height="20" viewBox="0 0 49 20" fill="none" xmlns="http://www.w3.org/2000/svg">
<path d="M2.10604 4.88919C2.55162 5.21249 3.09964 5.45016 3.6184 5.70777C6.35158 7.06502 8.97479 8.54018 11.5884 10.0286C13.2205 10.958 14.915 12.0004 16.8109 12.5944C17.0924 12.6826 17.2479 12.7011 17.5505 12.6763C17.8811 12.6491 18.3797 12.5232 18.6246 12.3386C18.9402 12.1008 18.8199 11.8463 18.7942 11.5325C18.7239 10.6766 18.7091 9.80529 18.5776 8.95589C18.4376 8.05157 18.0844 7.17287 17.9215 6.26881C17.7877 5.52672 17.6844 4.7542 17.6229 4.00392C17.5975 3.69439 17.4597 3.27092 17.6509 2.97179C17.8271 2.69609 18.8463 2.66214 19.1402 2.63568C20.4489 2.51788 21.5427 2.54757 22.7171 3.00756C25.6216 4.14524 28.3824 5.5108 31.26 6.69116C33.9772 7.80575 36.6051 8.99861 39.4806 9.88234C41.1652 10.4001 42.8867 10.7904 44.6082 11.2281C44.7756 11.2706 46.0767 11.5665 45.9282 11.702" stroke="#F2F2F2" stroke-width="3" stroke-linecap="round"/>
<path d="M40.6931 16.4805C42.1927 14.9977 43.8716 13.7367 45.5208 12.361C45.5871 12.3057 46.7221 11.5175 46.6244 11.4466C46.5352 11.3819 46.3801 11.3673 46.2844 11.3002C46.0674 11.1482 45.96 10.8928 45.8249 10.6963C44.9683 9.45011 43.8428 8.3067 42.8958 7.10252C42.1341 6.13391 41.3587 5.10686 40.4748 4.2038C40.3236 4.04931 40.1111 3.62367 39.8244 3.6472" stroke="#F2F2F2" stroke-width="3" stroke-linecap="round"/>
</svg>
