<svg width="420" height="1126" viewBox="0 0 420 1126" fill="none" xmlns="http://www.w3.org/2000/svg">
<path d="M282.783 685.418C283.712 704.231 290.793 721.866 294.866 740.038C312.601 819.063 329.57 895.106 341.693 975.274C346.875 1009.5 353.181 1041.51 353.448 1076.81C353.585 1095.95 350.201 1122.17 329.581 1111.05C327.441 1109.89 303.463 1088.25 302.412 1086.63C276.599 1046.34 247.789 994.008 226.466 946.965C220.616 934.069 215.578 914.951 209.418 902.844C208.692 901.422 205.764 900.736 204.999 898.205C204.703 897.202 203.589 897.04 203.059 897.854C200.016 902.493 195.39 918.046 194.718 920.333C179.23 972.914 157.086 1055.59 132.025 1096C129.921 1099.4 111.678 1122.74 110.215 1123.43C109.642 1123.7 98.9257 1125.56 98.3413 1125.39C97.596 1125.19 87.6008 1116.46 87.1739 1115.8C76.6158 1099.49 73.5933 1032.58 73.2392 1010.79C71.823 923.259 82.2087 832.116 90.7748 745.73C92.1847 731.55 97.6372 701.691 96.976 688.674C96.7161 683.569 93.8939 681.16 92.5992 678.632C89.1899 672.016 84.8894 664.974 80.5959 657.81C43.8374 596.595 2.51407 515.19 0.949632 432.843C0.784319 423.984 3.45665 395.727 7.347 389.006C9.27295 385.676 18.3434 377.713 21.7161 376.597C33.0542 372.837 49.9269 378.63 61.1812 383.375C73.1132 388.414 83.2058 398.22 95.1013 401.038C95.9267 401.238 96.6133 400.31 96.3779 399.315C95.4155 395.299 95.6623 390.451 94.6807 387.255C84.3674 353.436 70.9022 319.187 60.644 283.207C40.7307 213.33 9.24955 90.201 38.2407 20.6613C44.6797 5.20256 57.4872 -0.564918 71.2769 0.824872C81.8274 1.88689 85.2311 8.28239 93.1181 15.1441C130.047 47.2854 157.737 101.979 181.133 148.319C183.229 152.477 191.645 170.679 195.275 171.817C195.567 171.91 195.865 171.802 196.109 171.576C197.938 169.919 199.885 167.418 200.925 165.041C206.606 152.033 211.154 131.46 216.587 117.348C225.951 93.0016 250.69 35.6441 265.698 18.837C268.499 15.6948 278.513 6.28711 281.732 4.65467C292.032 -0.598925 301.115 7.66277 305.112 19.695C315.783 51.8141 311.296 101.964 308.15 135.195C300.961 211.222 288.505 287.834 272.8 359.777C271.68 364.917 271.09 370.424 269.63 375.582C269.447 376.217 269.665 376.922 270.143 377.26L272.496 378.911C272.73 379.075 273.002 379.138 273.251 379.081C281.908 377.301 287.896 367.705 293.984 363.629C307.44 354.624 349.085 330.707 362.942 331.575C371.117 332.088 382.913 341.611 386.766 350.726C389.342 356.802 390.005 375.811 389.877 382.977C389.372 411.099 373.335 441.277 366.374 466.512C366.173 467.247 365.512 467.614 364.914 467.319L364.478 467.1C363.891 466.805 363.24 467.172 363.028 467.897C360.179 477.403 355.131 485.424 350.705 493.869C349.464 496.231 349.636 499.838 348.151 502.417C345.23 507.513 337.984 512.088 336.487 520.879C336.348 521.723 335.63 522.191 334.981 521.858C334.322 521.514 333.594 521.993 333.466 522.847C331.854 534.201 321.827 542.699 316.185 551.335C305.824 567.184 297.473 581.401 286.208 595.902C281.898 601.453 278.646 605.727 278.587 614.032M419.778 535.206C418.998 535.226 418.503 536.199 418.795 537.082L419.778 535.206ZM145.108 577.224C146.986 605.855 153.049 660.539 160.153 686.967C163.004 697.588 172.058 725.547 183.341 712.155C185.574 709.498 186.901 704.642 188.09 701.041C199.499 666.24 195.957 563.566 192.442 523.693C190.474 501.386 182.467 436.318 171.27 420.448C158.142 401.846 150.506 432.78 148.48 445.155C143.226 477.279 142.905 543.719 145.097 577.214L145.108 577.224Z" fill="#EBE8E8"/>
</svg>
